<?xml version="1.0" encoding="iso-8859-1"?>
<!-- Uploaded to: SVG Repo, www.svgrepo.com, Generator: SVG Repo Mixer Tools -->
<svg height="800px" width="800px" version="1.1" id="Layer_1" xmlns="http://www.w3.org/2000/svg" xmlns:xlink="http://www.w3.org/1999/xlink" 
	 viewBox="0 0 512.003 512.003" xml:space="preserve">
<path style="fill:#3CC247;" d="M451.681,352.565c-6.373-0.031-14.695,0.433-24.281,2.343c30.671-5.319,57.192-22.738,74.47-47.162
	c3.579-5.058,1.473-12.136-4.325-14.321c-19.956-7.521-59.505-20.371-98.413-17.848c-56.656,3.673-107.762,26.093-143.129,64.027
	c-35.367-37.934-86.474-60.353-143.129-64.027c-38.908-2.522-78.459,10.327-98.413,17.848c-5.797,2.185-7.904,9.262-4.325,14.321
	c17.28,24.424,43.801,41.842,74.471,47.162c0.056,0.085-15.891-2.346-24.281-2.343c-10.809,0.003-21.269,1.495-31.19,4.277
	c-6.318,1.771-8.872,9.3-5.052,14.636c20.903,29.206,55.078,48.26,93.71,48.347c0.048,0.074-10.764,1.255-16.251,2.379
	c-10.043,2.058-19.512,5.366-28.278,9.723c-6.259,3.111-7.175,11.691-1.625,15.94c17.961,13.754,55.84,36.593,105.057,31.029
	c41.494-4.691,69.051-27.084,79.309-36.373c10.469,9.663,36.376,30.834,75.299,36.373c50.752,7.223,90.534-16.837,109.054-31.024
	c5.553-4.255,4.646-12.833-1.619-15.947c-8.765-4.356-18.231-7.663-28.272-9.721c-5.487-1.124-16.3-2.307-16.251-2.379
	c38.635-0.087,72.812-19.144,93.715-48.352c3.795-5.302,1.319-12.837-4.959-14.604c-0.04-0.011-0.08-0.022-0.122-0.033
	C478.029,355.485,466.643,352.639,451.681,352.565z M203.935,396.718c-36.179,0-67.707-19.897-84.253-49.343
	c11.115-4.462,23.25-6.923,35.962-6.923c36.179,0,67.708,19.897,84.253,49.343C228.781,394.258,216.645,396.718,203.935,396.718z
	 M311.409,396.718c-12.712,0-24.847-2.461-35.962-6.923c16.545-29.445,48.073-49.343,84.253-49.343
	c12.712,0,24.847,2.461,35.962,6.923C379.116,376.821,347.588,396.718,311.409,396.718z"/>
<g>
	<path style="fill:#2DA85F;" d="M232.607,318.848c0.083-0.064,0.166-0.127,0.249-0.191c-32.987-25.228-74.707-40.145-119.981-43.081
		c-11.264-0.731-22.578-0.167-33.459,1.177c40.508,4.73,77.679,19.218,107.601,42.237
		C200.476,329.346,219.135,329.186,232.607,318.848z"/>
	<path style="fill:#2DA85F;" d="M38.311,354.908c-0.195-0.033-0.389-0.074-0.585-0.109c-0.047,0.009-0.094,0.018-0.141,0.027
		C38.058,354.888,38.318,354.92,38.311,354.908z"/>
	<path style="fill:#2DA85F;" d="M497.549,293.427c-19.955-7.521-59.507-20.372-98.417-17.85c-4.314,0.28-8.592,0.682-12.837,1.177
		c7.037,0.869,13.891,2.067,20.429,3.457c26.148,5.56,32.127,40.112,9.333,54.077c-5.002,3.064-8.188,6.326-7.803,10.81
		c0.776,9.031,13.934,8.574,19.708,9.704c30.434-5.435,56.74-22.787,73.914-47.065C505.453,302.684,503.343,295.611,497.549,293.427
		z"/>
	<path style="fill:#2DA85F;" d="M187.063,459.374c-12.35,7.475-28.71,14.905-48.651,18.371c11.76,2.045,24.58,2.702,38.283,1.152
		c23.179-2.62,42.004-10.765,55.899-19.064c-0.105-0.065-0.211-0.129-0.315-0.194C218.416,451.094,200.994,450.941,187.063,459.374z
		"/>
	<path style="fill:#2DA85F;" d="M482.848,356.835L482.848,356.835c-4.819-1.35-16.204-4.196-31.167-4.27
		c-6.14-0.03-14.096,0.408-23.241,2.147c-0.099,0.019-0.098,0.165,0.001,0.185c3.528,0.706,6.293,1.428,8.111,1.937l0,0
		c6.307,1.768,8.921,9.263,5.111,14.592c-18.091,25.305-46.142,43-78.425,47.355c-1.851,0.25-1.916,2.883-0.08,3.225
		c0.353,0.066,0.69,0.132,1.011,0.197c0.149,0.03,0.298,0.061,0.447,0.093c20.032,4.187,23.671,31.325,5.549,40.831
		c-11.981,6.285-26.64,12.085-43.381,15.038c1.488,0.264,2.99,0.514,4.519,0.732c50.664,7.211,90.396-16.753,108.957-30.951
		c5.601-4.284,4.689-12.943-1.63-16.075c-8.735-4.331-18.164-7.617-28.165-9.667c-4.434-0.909-12.344-1.855-15.193-2.223
		c-0.106-0.013-0.088-0.163,0.019-0.164c38.212-0.435,71.963-19.427,92.668-48.39C491.769,366.099,489.154,358.603,482.848,356.835z
		"/>
</g>
<g>
	<path style="fill:#7C54B8;" d="M256.003,297.318c12.861-7.83,25.63-17.594,37.886-29.09c15.544-14.58,30.263-31.947,43.299-51.689
		c18.598-28.166,31.403-57.583,38.297-85.492c1.934-7.831-7.071-13.764-13.514-8.908c-19.286,14.537-37.912,33.326-54.401,55.664
		c-3.137,4.249-6.196,8.627-9.168,13.127c-7.567,11.46-16.842,23.796-22.483,35.484"/>
	<path style="fill:#7C54B8;" d="M256.003,297.318c-12.861-7.83-25.63-17.594-37.886-29.09
		c-15.544-14.58-30.263-31.947-43.299-51.689c-18.598-28.166-31.403-57.583-38.297-85.492c-1.934-7.831,7.071-13.764,13.514-8.908
		c19.286,14.537,37.912,33.326,54.401,55.664c3.137,4.249,6.196,8.627,9.168,13.127c7.567,11.46,17.028,24.842,22.669,36.53"/>
</g>
<g>
	<path style="fill:#674799;" d="M298.404,190.929c-7.567,11.46-16.842,23.796-22.483,35.484l-19.917,70.905
		c12.861-7.83,25.631-17.594,37.886-29.09c0.703-0.659,1.403-1.332,2.103-2.002c3.933-26.665,6.549-54.444,7.713-83.04
		C301.912,185.728,300.138,188.301,298.404,190.929z"/>
	<path style="fill:#674799;" d="M213.603,190.929c-1.736-2.628-3.51-5.201-5.302-7.744c1.164,28.596,3.779,56.375,7.713,83.04
		c0.699,0.672,1.4,1.343,2.103,2.002c12.257,11.497,25.025,21.26,37.886,29.09l-19.732-69.859
		C230.631,215.771,221.17,202.389,213.603,190.929z"/>
</g>
<path style="fill:#FD4DD7;" d="M230.345,156.457c0,53.581,9.639,102.686,25.658,140.861c16.017-38.176,25.658-87.28,25.658-140.861
	c0-43.741-6.424-84.497-17.497-118.76c-2.549-7.886-13.771-7.886-16.32,0C236.77,71.96,230.345,112.717,230.345,156.457z"/>
<path style="fill:#E846AA;" d="M235.526,158.422c-1.773-11.095-3.115-22.571-3.987-34.35c-0.784,10.57-1.193,21.382-1.193,32.385
	c0,53.581,9.639,102.686,25.658,140.861c16.018-38.176,25.658-87.28,25.658-140.861c0-11.003-0.408-21.816-1.193-32.385
	c-0.872,11.779-2.214,23.255-3.987,34.35C272.744,181.809,239.262,181.809,235.526,158.422z"/>
<path d="M398.777,339.612c-12.436-4.994-25.585-7.525-39.078-7.525c-37.888,0-72.967,20.543-91.546,53.611
	c-1.18,2.099-1.398,4.605-0.598,6.877c0.8,2.272,2.539,4.088,4.775,4.985c12.437,4.994,25.587,7.525,39.079,7.525
	c37.887,0,72.966-20.543,91.545-53.611c1.18-2.099,1.398-4.605,0.598-6.877C402.752,342.325,401.013,340.509,398.777,339.612z
	 M311.409,388.353c-7.895,0-15.647-1.03-23.151-3.068c16.486-22.714,43.024-36.465,71.442-36.465c7.895,0,15.646,1.03,23.15,3.068
	C366.365,374.601,339.826,388.353,311.409,388.353z"/>
<path d="M155.644,332.087c-13.494,0-26.641,2.532-39.079,7.525c-2.234,0.897-3.975,2.714-4.775,4.985s-0.582,4.778,0.598,6.877
	c18.581,33.069,53.659,53.611,91.546,53.611c13.493,0,26.64-2.532,39.079-7.525c2.234-0.897,3.975-2.714,4.775-4.985
	c0.8-2.271,0.582-4.778-0.598-6.877C228.61,352.628,193.531,332.087,155.644,332.087z M203.935,388.353
	c-28.417,0-54.956-13.751-71.442-36.465c7.504-2.039,15.256-3.068,23.151-3.068c28.416,0,54.955,13.751,71.442,36.465
	C219.582,387.323,211.83,388.353,203.935,388.353z"/>
<path d="M508.701,312.579c3.228-4.563,4.142-10.237,2.508-15.571c-1.623-5.299-5.527-9.458-10.713-11.412
	c-4.318-1.629-9.15,0.553-10.78,4.878c-1.63,4.324,0.553,9.151,4.877,10.781c0.116,0.044,0.469,0.176,0.616,0.656
	c0.108,0.354,0.051,0.693-0.168,1.004c-15.968,22.569-39.411,37.837-66.256,43.224c-1.008,0.176-2.016,0.365-3.021,0.564
	c-4.491,0.895-7.428,5.235-6.59,9.738c0.838,4.503,5.15,7.491,9.654,6.711c1.015-0.176,2.028-0.365,3.035-0.564
	c6.546-1.132,13.17-1.705,19.775-1.654c9.87,0.049,19.881,1.418,28.924,3.951l0.139,0.039c0.128,0.036,0.428,0.12,0.586,0.57
	c0.094,0.269,0.143,0.68-0.164,1.111c-20.046,28.009-52.543,44.778-86.93,44.854c-2.845,0.007-5.491,1.458-7.026,3.852
	c-1.535,2.394-1.747,5.405-0.567,7.992c1.948,4.264,5.545,4.719,9.024,5.158c3.368,0.426,9.635,1.218,13.159,1.94
	c9.134,1.873,17.959,4.906,26.229,9.017c0.387,0.192,0.603,0.501,0.644,0.919c0.054,0.556-0.257,0.793-0.39,0.895
	c-18.093,13.862-55.5,36.115-102.786,29.383c-32.939-4.689-56.684-21.207-70.804-34.238c-3.182-2.936-8.081-2.96-11.292-0.054
	c-12.167,11.019-38.043,30.124-74.632,34.262c-46.008,5.206-81.795-16.161-99.029-29.358c-0.129-0.099-0.434-0.332-0.382-0.883
	c0.041-0.419,0.258-0.731,0.645-0.924c8.274-4.113,17.1-7.147,26.234-9.019c3.525-0.722,9.792-1.515,13.159-1.94
	c3.47-0.44,7.06-0.892,9.014-5.138c1.19-2.587,0.982-5.602-0.552-8.003c-1.534-2.4-4.183-3.854-7.031-3.861
	c-34.384-0.077-66.879-16.842-86.924-44.851c-0.3-0.418-0.254-0.818-0.163-1.078c0.173-0.492,0.534-0.594,0.67-0.631
	c9.374-2.628,19.108-3.964,28.934-3.966c0.004,0,0.01,0,0.014,0c6.095,0,17.167,1.484,21.336,2.041
	c0.446,0.06,0.944,0.126,1.475,0.174c0.008,0.001,0.014,0.002,0.022,0.003v-0.001c2.644,0.236,6.14,0.004,8.524-3.806
	c1.477-2.363,1.681-5.306,0.544-7.849c-1.137-2.543-3.464-4.355-6.209-4.831c-28.018-4.859-52.548-20.397-69.071-43.749
	c-0.221-0.312-0.278-0.65-0.17-1.004c0.147-0.48,0.5-0.612,0.615-0.656c24.251-9.14,60.407-19.568,94.922-17.328
	c55.129,3.574,103.979,25.374,137.551,61.383c1.583,1.697,3.8,2.662,6.12,2.662c2.32,0,4.537-0.964,6.119-2.662
	c33.572-36.009,82.423-57.809,137.552-61.383c10.852-0.703,22.662-0.183,35.104,1.548c4.571,0.636,8.803-2.557,9.44-7.135
	c0.636-4.577-2.558-8.803-7.135-9.44c-13.561-1.885-26.511-2.448-38.492-1.672c-56.162,3.641-106.43,25.003-142.588,60.401
	c-36.158-35.398-86.427-56.759-142.588-60.401c-37.499-2.433-76.113,8.647-101.906,18.369c-5.184,1.954-9.088,6.113-10.713,11.412
	c-1.634,5.332-0.72,11.007,2.509,15.571c9.634,13.616,21.625,24.935,35.305,33.529c-3.955,0.701-7.87,1.594-11.734,2.677
	c-5.559,1.558-10.022,5.744-11.939,11.194c-1.933,5.499-1.058,11.618,2.343,16.367c14.953,20.892,35.903,36.372,59.566,44.75
	c-2.472,1.033-4.908,2.146-7.306,3.338c-5.573,2.77-9.256,8.116-9.853,14.301c-0.591,6.133,1.976,12.03,6.864,15.774
	c19.234,14.729,59.243,38.566,111.083,32.7c36.22-4.095,63.052-21.133,78.306-33.602c16.242,13.62,41.058,28.857,74.184,33.571
	c6.809,0.969,13.431,1.41,19.843,1.41c43.812,0,77.876-20.592,95.476-34.077c4.894-3.748,7.461-9.649,6.87-15.785
	c-0.597-6.182-4.28-11.526-9.851-14.295c-2.395-1.19-4.83-2.302-7.3-3.335c23.667-8.378,44.615-23.86,59.57-44.757
	c3.402-4.756,4.279-10.883,2.345-16.393c-1.904-5.42-6.331-9.583-11.824-11.129l-0.148-0.041c-3.795-1.064-7.731-1.95-11.742-2.651
	C487.057,337.53,499.059,326.207,508.701,312.579z"/>
<path d="M167.836,221.148c13.107,19.85,28.098,37.742,44.557,53.181c12.562,11.784,25.77,21.922,39.259,30.134
	c2.638,1.605,6.063,1.605,8.702,0c13.488-8.213,26.697-18.352,39.258-30.135c16.459-15.437,31.449-33.329,44.557-53.181
	c18.475-27.978,32.111-58.441,39.438-88.096c1.741-7.048-1.054-14.191-7.122-18.197c-6.072-4.008-13.746-3.775-19.55,0.6
	c-20.556,15.494-39.43,34.798-56.096,57.376c-2.744,3.718-1.956,8.956,1.763,11.7c3.716,2.743,8.956,1.956,11.7-1.763
	c15.707-21.278,33.441-39.429,52.706-53.951c0.056-0.042,0.094-0.064,0.099-0.07c0.094,0.017,0.251,0.119,0.278,0.147
	c0,0,0.002,0.045-0.023,0.144c-6.874,27.823-19.723,56.485-37.157,82.888c-12.388,18.763-26.533,35.652-42.042,50.197
	c-5,4.69-10.107,9.077-15.284,13.179c11.126-35.538,17.146-76.764,17.146-118.848c0-43.135-6.19-85.092-17.902-121.333
	c-2.3-7.113-8.628-11.709-16.123-11.708c-7.494,0-13.823,4.596-16.121,11.709c-11.712,36.241-17.902,78.198-17.902,121.334
	c0,42.084,6.019,83.31,17.146,118.847c-5.178-4.102-10.284-8.489-15.284-13.179c-15.508-14.547-29.652-31.436-42.04-50.197
	c-17.435-26.406-30.284-55.069-37.157-82.888c-0.016-0.06-0.02-0.1-0.025-0.112c0.056-0.078,0.21-0.177,0.253-0.187
	c0,0,0.044,0.016,0.126,0.079c19.265,14.521,36.998,32.673,52.706,53.951c2.744,3.718,7.983,4.506,11.7,1.763
	c3.717-2.744,4.507-7.983,1.761-11.701c-16.667-22.578-35.54-41.882-56.096-57.376c-5.804-4.374-13.479-4.611-19.55-0.6
	c-6.067,4.006-8.862,11.148-7.122,18.196C135.724,162.705,149.36,193.168,167.836,221.148
	C180.942,240.998,149.36,193.168,167.836,221.148z M255.804,40.27c0.016-0.05,0.03-0.084,0.033-0.099
	c0.098-0.033,0.28-0.033,0.308-0.037c0,0,0.026,0.038,0.057,0.135c11.181,34.601,17.091,74.777,17.091,116.187
	c0,41.607-6.071,82.225-17.291,116.772c-11.22-34.547-17.291-75.165-17.291-116.772C238.712,115.046,244.622,74.868,255.804,40.27z"
	/>
</svg>